<?xml version="1.0" standalone="yes"?>

<svg version="1.1" viewBox="0.0 0.0 960.0 540.0" fill="none" stroke="none" stroke-linecap="square" stroke-miterlimit="10" xmlns="http://www.w3.org/2000/svg" xmlns:xlink="http://www.w3.org/1999/xlink"><clipPath id="p.0"><path d="m0 0l960.0 0l0 540.0l-960.0 0l0 -540.0z" clip-rule="nonzero"></path></clipPath><g clip-path="url(#p.0)"><path fill="#f9f9f9" d="m0 0l960.0 0l0 540.0l-960.0 0z" fill-rule="nonzero"></path><path fill="#000000" fill-opacity="0.0" d="m116.438324 208.10236l125.102356 0l0 70.61417l-125.102356 0z" fill-rule="nonzero"></path><path fill="#000000" fill-opacity="0.0" d="m121.0 74.0l5.0078735 325.00787" fill-rule="nonzero"></path><path stroke="#595959" stroke-width="2.0" stroke-linejoin="round" stroke-linecap="butt" d="m121.0 74.0l5.0078735 325.00787" fill-rule="nonzero"></path><path fill="#000000" fill-opacity="0.0" d="m331.0 74.0l5.0078735 325.00787" fill-rule="nonzero"></path><path stroke="#595959" stroke-width="2.0" stroke-linejoin="round" stroke-linecap="butt" d="m331.0 74.0l5.0078735 325.00787" fill-rule="nonzero"></path><path fill="#000000" fill-opacity="0.0" d="m78.0 178.0l1.0078735 74.99213" fill-rule="nonzero"></path><path stroke="#595959" stroke-width="1.0" stroke-linejoin="round" stroke-linecap="butt" d="m78.0 178.0l0.92723846 68.99266" fill-rule="evenodd"></path><path fill="#595959" stroke="#595959" stroke-width="1.0" stroke-linecap="butt" d="m77.27566 247.01486l1.7125702 4.5154877l1.5905991 -4.5598755z" fill-rule="evenodd"></path><path fill="#000000" fill-opacity="0.0" d="m34.0 202.0l44.0 0l0 26.992126l-44.0 0z" fill-rule="nonzero"></path><path fill="#000000" d="m47.34375 213.38063q-0.046875 1.546875 -0.046875 3.734375q0 2.1875 0.046875 3.4375l-0.90625 0l0 -0.8125l-1.71875 0l0 1.40625l-0.90625 0q0.046875 -1.96875 0.046875 -3.953125q0 -2.015625 -0.046875 -3.8125l3.53125 0zm4.03125 1.28125q0 -1.28125 -0.03125 -2.40625l0.9375 0q-0.046875 1.125 -0.046875 2.40625q0.65625 0 1.375 -0.046875l0 0.828125q-0.71875 -0.046875 -1.375 -0.046875l0 5.75q0 0.65625 -0.515625 0.828125q-0.515625 0.171875 -1.328125 0.25q0 -0.515625 -0.46875 -0.984375q0.8125 0.09375 1.125 0.046875q0.328125 -0.046875 0.328125 -0.5625l0 -5.328125q-2.140625 0 -3.609375 0.046875l0 -0.828125q1.375 0.046875 3.609375 0.046875zm-4.9375 4.34375l0 -2.15625l-1.71875 0l0 2.15625l1.71875 0zm0 -2.875l0 -2.03125l-1.71875 0l0 2.03125l1.71875 0zm2.671875 0.421875q0.546875 0.90625 1.0625 1.9375q-0.421875 0.125 -0.890625 0.390625q-0.34375 -1.03125 -1.0 -1.9375q0.390625 -0.171875 0.828125 -0.390625zm12.203125 -1.421875q-0.046875 0.828125 -0.046875 1.421875l0 2.28125q0 0.5625 0.046875 1.328125l-4.34375 0q0.046875 -0.765625 0.046875 -1.375l0 -2.234375q0 -0.59375 -0.046875 -1.421875l4.34375 0zm2.3125 -2.265625q-0.046875 0.8125 -0.046875 1.625l0 6.3125q0.046875 1.0 -0.53125 1.203125q-0.578125 0.21875 -1.265625 0.3125q-0.046875 -0.515625 -0.34375 -1.03125q0.8125 0.046875 1.046875 -0.078125q0.234375 -0.140625 0.234375 -0.578125l0 -7.046875l-2.578125 0q-1.03125 0 -1.921875 0.046875l0 -0.8125q0.890625 0.046875 1.921875 0.046875l3.484375 0zm-9.015625 9.28125q0.078125 -0.859375 0.078125 -1.8125l0 -4.515625q0 -0.890625 -0.078125 -1.5l0.984375 0q-0.046875 0.640625 -0.046875 1.25l0 4.8125q0 0.859375 0.046875 1.765625l-0.984375 0zm5.84375 -2.671875l0 -1.59375l-2.625 0l0 1.59375l2.625 0zm0 -2.28125l0 -1.375l-2.625 0l0 1.375l2.625 0zm-4.171875 -5.0625q0.390625 0.515625 1.203125 1.625q-0.46875 0.21875 -0.90625 0.484375q-0.421875 -0.859375 -1.078125 -1.640625q0.484375 -0.34375 0.78125 -0.46875z" fill-rule="nonzero"></path><path fill="#000000" fill-opacity="0.0" d="m124.0 91.0l208.0 60.0" fill-rule="nonzero"></path><path stroke="#42b983" stroke-width="1.0" stroke-linejoin="round" stroke-linecap="butt" d="m124.0 91.0l202.23505 58.337036" fill-rule="evenodd"></path><path fill="#42b983" stroke="#42b983" stroke-width="1.0" stroke-linecap="butt" d="m325.77725 150.92406l4.818115 -0.3292389l-3.9025269 -2.8448029z" fill-rule="evenodd"></path><path fill="#000000" fill-opacity="0.0" d="m124.0 106.0l208.0 60.0" fill-rule="nonzero"></path><path stroke="#42b983" stroke-width="1.0" stroke-linejoin="round" stroke-linecap="butt" d="m124.0 106.0l202.23505 58.337036" fill-rule="evenodd"></path><path fill="#42b983" stroke="#42b983" stroke-width="1.0" stroke-linecap="butt" d="m325.77725 165.92406l4.818115 -0.3292389l-3.9025269 -2.8448029z" fill-rule="evenodd"></path><path fill="#000000" fill-opacity="0.0" d="m124.0 123.0l208.0 60.0" fill-rule="nonzero"></path><path stroke="#42b983" stroke-width="1.0" stroke-linejoin="round" stroke-linecap="butt" d="m124.0 123.0l202.23505 58.33705" fill-rule="evenodd"></path><path fill="#42b983" stroke="#42b983" stroke-width="1.0" stroke-linecap="butt" d="m325.77725 182.92406l4.818115 -0.3292389l-3.9025269 -2.8448029z" fill-rule="evenodd"></path><path fill="#000000" fill-opacity="0.0" d="m34.0 484.49606l94.99213 0.50393677" fill-rule="nonzero"></path><path stroke="#42b983" stroke-width="1.0" stroke-linejoin="round" stroke-linecap="butt" d="m34.0 484.49606l88.99221 0.47210693" fill-rule="evenodd"></path><path fill="#42b983" stroke="#42b983" stroke-width="1.0" stroke-linecap="butt" d="m122.98345 486.61987l4.546791 -1.6276245l-4.5292664 -1.6757812z" fill-rule="evenodd"></path><path fill="#000000" fill-opacity="0.0" d="m34.0 450.50394l101.98425 0l0 26.992126l-101.98425 0z" fill-rule="nonzero"></path><path fill="#000000" d="m44.125 461.7908l8.625 0l0 0.8125l-3.5625 0l0 2.671875l2.796875 0l0 0.8125l-2.796875 0l0 3.046875l3.875 0l0 0.828125l-9.25 0l0 -0.828125l1.59375 0l0 -4.8125l0.953125 0q0.34375 0.046875 0.03125 0.265625l0 4.546875l1.8125 0l0 -6.53125l-4.078125 0l0 -0.8125zm17.390625 7.4375l0.859375 0q0.171875 0 0.171875 -0.171875l0 -1.15625l-2.609375 0l0 2.65625l-0.859375 0l0 -2.65625l-2.453125 0l0 2.109375l-0.859375 0l0 -2.9375l3.3125 0l0 -0.6875l-1.125 0l-1.109375 0l0 -2.359375l5.234375 0l0 2.359375l-2.140625 0l0 0.6875l3.46875 0l0 2.375q0 0.59375 -0.59375 0.59375l-1.125 0l-0.171875 -0.8125zm-4.296875 -6.53125q-0.375 -0.640625 -0.9375 -1.078125l0.6875 -0.5625q0.6875 0.4375 1.078125 1.171875l-0.65625 0.46875l1.6875 0l0 -1.890625l0.8125 0q0.34375 0.046875 0.046875 0.25l0 1.640625l1.625 0l-0.6875 -0.4375l0.859375 -1.328125l0.78125 0.46875q0.296875 0.21875 -0.09375 0.21875l-0.734375 1.078125l2.40625 0l0 2.015625l-0.859375 0l0 -1.328125l-7.5625 0l0 1.5l-0.859375 0l0 -2.1875l2.40625 0zm4.0 2.015625l-3.515625 0l0 0.984375l3.515625 0l0 -0.984375zm11.78125 2.671875q0.59375 -1.171875 0.71875 -3.53125l-1.453125 0q0.125 2.359375 0.734375 3.53125zm1.578125 -3.53125q-0.078125 2.671875 -1.03125 4.296875q0.6875 0.859375 1.9375 1.5l-0.5625 0.953125q-1.375 -0.90625 -1.921875 -1.71875q-1.0 1.125 -3.0625 1.9375l-0.421875 -0.859375q2.234375 -0.90625 2.96875 -1.859375q-0.734375 -1.40625 -0.828125 -2.828125q-0.25 0.640625 -0.515625 0.984375l-0.71875 -0.5625q1.28125 -1.890625 1.546875 -4.671875l0.890625 0.203125q0.265625 0.171875 -0.125 0.265625q-0.125 0.765625 -0.34375 1.546875l2.921875 0l0 0.8125l-0.734375 0zm-3.984375 -2.0625q-0.265625 0.640625 -0.609375 1.078125l-0.6875 -0.390625q0.34375 -0.5625 0.640625 -1.28125l0.78125 0.375q0.171875 0.171875 -0.125 0.21875zm-2.75 6.0625q0.59375 0.171875 1.0625 0.390625q0.34375 -0.390625 0.5625 -1.171875l-1.25 0q-0.171875 0.390625 -0.375 0.78125zm-0.609375 1.078125l-0.6875 -0.390625q0.4375 -0.640625 0.859375 -1.46875l-1.625 0l0 -0.6875l1.890625 0q0.25 -0.546875 0.375 -0.9375l0.828125 0.21875q0.171875 0.171875 -0.140625 0.203125l-0.25 0.515625l2.453125 0l0 0.6875l-0.65625 0q-0.203125 0.859375 -0.640625 1.46875q0.390625 0.171875 0.8125 0.421875l-0.375 0.6875q-0.484375 -0.296875 -0.859375 -0.46875q-1.125 1.125 -3.015625 1.375l-0.296875 -0.765625q1.671875 -0.171875 2.578125 -0.953125q-0.46875 -0.21875 -0.953125 -0.390625l-0.296875 0.484375zm0.859375 -8.078125l0.6875 0q0.34375 0.03125 0.046875 0.25l0 1.84375l2.1875 0l0 0.6875l-1.796875 0q0.46875 0.5625 1.453125 1.078125l-0.46875 0.734375q-0.734375 -0.4375 -1.375 -1.203125l0 1.03125l-0.734375 0l0 -0.8125q-0.6875 0.859375 -1.890625 1.546875l-0.5625 -0.6875q1.34375 -0.6875 2.203125 -1.6875l-1.984375 0l0 -0.6875l2.234375 0l0 -2.09375zm-1.203125 1.96875q-0.296875 -0.640625 -0.765625 -1.109375l0.6875 -0.4375q0.515625 0.515625 0.765625 1.078125l-0.6875 0.46875zm13.40625 -1.71875l5.625 0l0 2.703125l-1.921875 0l0 1.25l2.40625 0l0 0.6875l-2.40625 0l0 1.296875l1.671875 0l0 3.5625l-0.734375 0l0 -0.46875l-2.578125 0l0 0.59375l-0.734375 0l0 -3.6875l1.515625 0l0 -1.296875l-2.109375 0l0 0.6875q0 2.875 -1.25 4.171875l-0.640625 -0.640625q1.15625 -1.171875 1.15625 -3.703125l0 -5.15625zm4.640625 6.625l-2.578125 0l0 1.71875l2.578125 0l0 -1.71875zm-1.796875 -2.671875l0 -1.25l-2.109375 0l0 1.25l2.109375 0zm-2.109375 -1.9375l4.03125 0l0 -1.328125l-4.03125 0l0 1.328125zm-1.125 3.234375l-1.109375 0.375l0 3.359375q0 0.6875 -0.6875 0.6875l-0.859375 0l-0.125 -0.8125l0.640625 0q0.171875 0 0.171875 -0.171875l0 -2.796875l-0.90625 0.296875q-0.046875 0.296875 -0.21875 0.125l-0.296875 -1.03125l1.421875 -0.296875l0 -2.234375l-1.203125 0l0 -0.8125l1.203125 0l0 -2.234375l0.8125 0q0.34375 0.046875 0.046875 0.25l0 1.984375l1.109375 0l0 0.8125l-1.109375 0l0 2.0625l1.03125 -0.296875l0.078125 0.734375z" fill-rule="nonzero"></path><path fill="#000000" d="m96.453125 466.3533q-0.8125 1.796875 -1.375 2.953125q0.46875 0.265625 1.296875 0.78125q-0.265625 0.296875 -0.5625 0.8125q-0.734375 -0.515625 -1.921875 -1.171875q-1.171875 -0.671875 -1.640625 -0.890625q0.203125 -0.390625 0.375 -0.734375q0.5625 0.265625 1.71875 0.828125q0.4375 -0.859375 0.828125 -1.859375l-3.359375 0q0.265625 -0.765625 0.5625 -1.890625l-0.953125 0q-0.640625 0 -1.109375 0.046875l0 -0.765625q0.5625 0.03125 1.15625 0.03125l1.03125 0q0.171875 -0.8125 0.265625 -1.328125l-0.65625 0q-0.765625 0 -1.234375 0.046875l0 -0.78125q0.515625 0.046875 1.203125 0.046875l0.8125 0q0.171875 -1.25 0.171875 -1.71875q0.5625 0.125 0.984375 0.171875q-0.125 0.21875 -0.390625 1.546875l1.859375 0q0.6875 0 1.28125 -0.046875l0 0.78125q-0.5625 -0.046875 -1.328125 -0.046875l-1.890625 0q-0.09375 0.46875 -0.265625 1.328125l2.71875 0q0.859375 0 1.328125 -0.03125l0 0.765625q-0.515625 -0.046875 -1.328125 -0.046875l-2.84375 0q-0.171875 0.6875 -0.296875 1.171875l3.5625 0zm-5.625 -4.984375q-0.34375 0.34375 -0.984375 1.921875l0 5.5q0 1.0 0.03125 1.859375l-0.9375 0q0.078125 -0.6875 0.078125 -1.8125l0 -4.25q-0.640625 1.03125 -1.0625 1.625q-0.171875 -0.34375 -0.609375 -0.6875q0.515625 -0.59375 1.25 -1.84375q0.734375 -1.25 1.203125 -2.828125q0.390625 0.203125 1.03125 0.515625zm12.375 2.09375q-0.859375 0.953125 -1.15625 1.203125l2.65625 0q-0.046875 0.484375 -0.046875 1.171875l0 4.078125q0.046875 0.390625 -0.1875 0.5625q-0.234375 0.171875 -0.84375 0.296875q-0.125 -0.421875 -0.421875 -0.859375q0.734375 0 0.734375 -0.21875l0 -1.109375l-1.171875 0l0 2.140625l-0.765625 0q0.046875 -0.765625 0.046875 -1.546875l0 -3.0q0 -0.734375 -0.046875 -1.46875l-0.265625 0.21875q-0.296875 -0.34375 -0.71875 -0.515625q1.0625 -0.734375 1.828125 -1.703125q0.78125 -0.96875 1.296875 -2.078125q0.515625 0.25 0.953125 0.34375l-0.171875 0.21875q0.8125 1.109375 1.71875 1.71875q0.90625 0.59375 1.671875 0.859375q-0.390625 0.34375 -0.640625 0.765625q-0.953125 -0.46875 -1.640625 -1.078125l0 0.515625l-2.828125 0l0 -0.515625zm-1.71875 4.859375q-0.4375 0.09375 -0.859375 0.265625q0 1.328125 0.046875 2.28125l-0.828125 0q0.046875 -0.953125 0.046875 -2.109375q-0.984375 0.25 -1.421875 0.421875q-0.125 -0.421875 -0.375 -0.859375q0.6875 -0.078125 1.796875 -0.34375l0 -1.625q-1.03125 0.078125 -1.546875 0.296875l-0.296875 -0.734375q0.34375 -0.21875 0.640625 -1.078125q0.296875 -0.859375 0.46875 -1.671875q-0.421875 0 -0.890625 0.046875l0 -0.78125q0.546875 0.046875 1.03125 0.046875q0.171875 -0.8125 0.203125 -1.625q0.5625 0.171875 1.03125 0.25q-0.25 0.296875 -0.46875 1.375q0.90625 0 1.546875 -0.046875l0 0.78125q-0.765625 -0.046875 -1.671875 -0.046875q-0.4375 1.59375 -0.859375 2.578125l0.8125 -0.078125q0 -0.5625 -0.046875 -1.296875l0.828125 0q-0.046875 0.390625 -0.046875 1.203125l0.734375 -0.078125l0 0.6875l-0.734375 0.078125l0 1.546875l0.859375 -0.21875l0 0.734375zm6.09375 -3.609375q-0.03125 0.6875 -0.03125 1.328125l0 3.875q0 0.46875 -0.21875 0.640625q-0.21875 0.171875 -1.078125 0.34375q-0.078125 -0.375 -0.421875 -0.859375q0.9375 0.046875 0.984375 -0.296875l0 -3.609375q0 -0.6875 -0.046875 -1.421875l0.8125 0zm-1.375 0.390625q-0.03125 0.515625 -0.03125 1.203125l0 1.890625q0 0.8125 0.03125 1.328125l-0.859375 0q0.046875 -0.640625 0.046875 -1.28125l0 -1.9375q0 -0.609375 -0.046875 -1.203125l0.859375 0zm-0.375 -1.8125q-0.515625 -0.46875 -1.34375 -1.578125q-0.6875 1.03125 -1.15625 1.578125l2.5 0zm-1.890625 3.015625l0 -0.984375l-1.171875 0l0 0.984375l1.171875 0zm0 1.59375l0 -0.953125l-1.171875 0l0 0.953125l1.171875 0z" fill-rule="nonzero"></path><path fill="#000000" fill-opacity="0.0" d="m37.496063 38.0l82.01575 0l0 26.992126l-82.01575 0z" fill-rule="nonzero"></path><path fill="#000000" d="m47.527313 57.239998l0 -7.875l1.03125 0l0 7.875l-1.03125 0zm2.7731476 0l0 -7.875l2.96875 0q0.796875 0 1.203125 0.078125q0.578125 0.09375 0.96875 0.375q0.390625 0.265625 0.625 0.75q0.25 0.484375 0.25 1.078125q0 1.0 -0.640625 1.703125q-0.640625 0.6875 -2.3125 0.6875l-2.015625 0l0 3.203125l-1.046875 0zm1.046875 -4.125l2.03125 0q1.015625 0 1.4375 -0.375q0.421875 -0.375 0.421875 -1.0625q0 -0.5 -0.25 -0.84375q-0.25 -0.359375 -0.65625 -0.46875q-0.265625 -0.0625 -0.96875 -0.0625l-2.015625 0l0 2.8125zm9.3107605 4.125l-0.96875 0l0 -6.15625q-0.34375 0.328125 -0.90625 0.671875q-0.5625 0.328125 -1.015625 0.484375l0 -0.9375q0.8125 -0.375 1.40625 -0.90625q0.609375 -0.546875 0.859375 -1.0625l0.625 0l0 7.90625zm2.8327484 -4.609375l0 -1.09375l1.09375 0l0 1.09375l-1.09375 0zm0 4.609375l0 -1.09375l1.09375 0l0 1.09375l-1.09375 0zm2.8043976 0l0 -7.875l2.96875 0q0.796875 0 1.203125 0.078125q0.578125 0.09375 0.96875 0.375q0.390625 0.265625 0.625 0.75q0.25 0.484375 0.25 1.078125q0 1.0 -0.640625 1.703125q-0.640625 0.6875 -2.3125 0.6875l-2.015625 0l0 3.203125l-1.046875 0zm1.046875 -4.125l2.03125 0q1.015625 0 1.4375 -0.375q0.421875 -0.375 0.421875 -1.0625q0 -0.5 -0.25 -0.84375q-0.25 -0.359375 -0.65625 -0.46875q-0.265625 -0.0625 -0.96875 -0.0625l-2.015625 0l0 2.8125zm5.7482605 0.296875q0 -1.96875 1.046875 -3.078125q1.0625 -1.109375 2.71875 -1.109375q1.09375 0 1.96875 0.53125q0.875 0.515625 1.328125 1.453125q0.46875 0.921875 0.46875 2.109375q0 1.1875 -0.484375 2.140625q-0.484375 0.9375 -1.375 1.4375q-0.875 0.484375 -1.90625 0.484375q-1.109375 0 -1.984375 -0.53125q-0.875 -0.546875 -1.328125 -1.46875q-0.453125 -0.9375 -0.453125 -1.96875zm1.078125 0.015625q0 1.421875 0.765625 2.25q0.765625 0.8125 1.921875 0.8125q1.171875 0 1.921875 -0.828125q0.765625 -0.828125 0.765625 -2.359375q0 -0.953125 -0.328125 -1.671875q-0.3125 -0.71875 -0.9375 -1.109375q-0.625 -0.390625 -1.40625 -0.390625q-1.109375 0 -1.90625 0.765625q-0.796875 0.75 -0.796875 2.53125zm7.5387726 3.8125l0 -7.875l3.5 0q1.046875 0 1.59375 0.21875q0.546875 0.203125 0.875 0.75q0.328125 0.53125 0.328125 1.1875q0 0.828125 -0.546875 1.40625q-0.53125 0.578125 -1.671875 0.734375q0.421875 0.1875 0.625 0.390625q0.46875 0.421875 0.875 1.046875l1.359375 2.140625l-1.296875 0l-1.046875 -1.640625q-0.453125 -0.703125 -0.75 -1.078125q-0.296875 -0.375 -0.53125 -0.53125q-0.234375 -0.15625 -0.46875 -0.203125q-0.1875 -0.046875 -0.59375 -0.046875l-1.203125 0l0 3.5l-1.046875 0zm1.046875 -4.40625l2.234375 0q0.71875 0 1.125 -0.140625q0.40625 -0.140625 0.609375 -0.46875q0.203125 -0.328125 0.203125 -0.703125q0 -0.5625 -0.40625 -0.921875q-0.390625 -0.359375 -1.265625 -0.359375l-2.5 0l0 2.59375zm8.648727 4.40625l0 -6.9375l-2.59375 0l0 -0.9375l6.234375 0l0 0.9375l-2.609375 0l0 6.9375l-1.03125 0zm7.743637 0l-0.96875 0l0 -6.15625q-0.34375 0.328125 -0.90625 0.671875q-0.5625 0.328125 -1.015625 0.484375l0 -0.9375q0.8125 -0.375 1.40625 -0.90625q0.609375 -0.546875 0.859375 -1.0625l0.625 0l0 7.90625z" fill-rule="nonzero"></path><path fill="#000000" fill-opacity="0.0" d="m341.49606 38.0l82.01575 0l0 26.992126l-82.01575 0z" fill-rule="nonzero"></path><path fill="#000000" d="m351.5273 57.239998l0 -7.875l1.03125 0l0 7.875l-1.03125 0zm2.7731323 0l0 -7.875l2.96875 0q0.796875 0 1.203125 0.078125q0.578125 0.09375 0.96875 0.375q0.390625 0.265625 0.625 0.75q0.25 0.484375 0.25 1.078125q0 1.0 -0.640625 1.703125q-0.640625 0.6875 -2.3125 0.6875l-2.015625 0l0 3.203125l-1.046875 0zm1.046875 -4.125l2.03125 0q1.015625 0 1.4375 -0.375q0.421875 -0.375 0.421875 -1.0625q0 -0.5 -0.25 -0.84375q-0.25 -0.359375 -0.65625 -0.46875q-0.265625 -0.0625 -0.96875 -0.0625l-2.015625 0l0 2.8125zm10.7482605 3.203125l0 0.921875l-5.203125 0q0 -0.34375 0.125 -0.671875q0.1875 -0.53125 0.625 -1.046875q0.4375 -0.515625 1.265625 -1.1875q1.28125 -1.0625 1.734375 -1.671875q0.453125 -0.609375 0.453125 -1.15625q0 -0.578125 -0.40625 -0.96875q-0.40625 -0.40625 -1.078125 -0.40625q-0.6875 0 -1.109375 0.421875q-0.421875 0.421875 -0.421875 1.15625l-1.0 -0.09375q0.109375 -1.109375 0.765625 -1.6875q0.671875 -0.59375 1.796875 -0.59375q1.125 0 1.78125 0.625q0.671875 0.625 0.671875 1.5625q0 0.46875 -0.203125 0.9375q-0.1875 0.453125 -0.640625 0.953125q-0.4375 0.5 -1.484375 1.390625q-0.875 0.71875 -1.125 0.984375q-0.234375 0.265625 -0.40625 0.53125l3.859375 0zm1.3952637 -3.6875l0 -1.09375l1.09375 0l0 1.09375l-1.09375 0zm0 4.609375l0 -1.09375l1.09375 0l0 1.09375l-1.09375 0zm2.8043823 0l0 -7.875l2.96875 0q0.796875 0 1.203125 0.078125q0.578125 0.09375 0.96875 0.375q0.390625 0.265625 0.625 0.75q0.25 0.484375 0.25 1.078125q0 1.0 -0.640625 1.703125q-0.640625 0.6875 -2.3125 0.6875l-2.015625 0l0 3.203125l-1.046875 0zm1.046875 -4.125l2.03125 0q1.015625 0 1.4375 -0.375q0.421875 -0.375 0.421875 -1.0625q0 -0.5 -0.25 -0.84375q-0.25 -0.359375 -0.65625 -0.46875q-0.265625 -0.0625 -0.96875 -0.0625l-2.015625 0l0 2.8125zm5.7482605 0.296875q0 -1.96875 1.046875 -3.078125q1.0625 -1.109375 2.71875 -1.109375q1.09375 0 1.96875 0.53125q0.875 0.515625 1.328125 1.453125q0.46875 0.921875 0.46875 2.109375q0 1.1875 -0.484375 2.140625q-0.484375 0.9375 -1.375 1.4375q-0.875 0.484375 -1.90625 0.484375q-1.109375 0 -1.984375 -0.53125q-0.875 -0.546875 -1.328125 -1.46875q-0.453125 -0.9375 -0.453125 -1.96875zm1.078125 0.015625q0 1.421875 0.765625 2.25q0.765625 0.8125 1.921875 0.8125q1.171875 0 1.921875 -0.828125q0.765625 -0.828125 0.765625 -2.359375q0 -0.953125 -0.328125 -1.671875q-0.3125 -0.71875 -0.9375 -1.109375q-0.625 -0.390625 -1.40625 -0.390625q-1.109375 0 -1.90625 0.765625q-0.796875 0.75 -0.796875 2.53125zm7.538788 3.8125l0 -7.875l3.5 0q1.046875 0 1.59375 0.21875q0.546875 0.203125 0.875 0.75q0.328125 0.53125 0.328125 1.1875q0 0.828125 -0.546875 1.40625q-0.53125 0.578125 -1.671875 0.734375q0.421875 0.1875 0.625 0.390625q0.46875 0.421875 0.875 1.046875l1.359375 2.140625l-1.296875 0l-1.046875 -1.640625q-0.453125 -0.703125 -0.75 -1.078125q-0.296875 -0.375 -0.53125 -0.53125q-0.234375 -0.15625 -0.46875 -0.203125q-0.1875 -0.046875 -0.59375 -0.046875l-1.203125 0l0 3.5l-1.046875 0zm1.046875 -4.40625l2.234375 0q0.71875 0 1.125 -0.140625q0.40625 -0.140625 0.609375 -0.46875q0.203125 -0.328125 0.203125 -0.703125q0 -0.5625 -0.40625 -0.921875q-0.390625 -0.359375 -1.265625 -0.359375l-2.5 0l0 2.59375zm8.648712 4.40625l0 -6.9375l-2.59375 0l0 -0.9375l6.234375 0l0 0.9375l-2.609375 0l0 6.9375l-1.03125 0zm9.181152 -0.921875l0 0.921875l-5.203125 0q0 -0.34375 0.125 -0.671875q0.1875 -0.53125 0.625 -1.046875q0.4375 -0.515625 1.265625 -1.1875q1.28125 -1.0625 1.734375 -1.671875q0.453125 -0.609375 0.453125 -1.15625q0 -0.578125 -0.40625 -0.96875q-0.40625 -0.40625 -1.078125 -0.40625q-0.6875 0 -1.109375 0.421875q-0.421875 0.421875 -0.421875 1.15625l-1.0 -0.09375q0.109375 -1.109375 0.765625 -1.6875q0.671875 -0.59375 1.796875 -0.59375q1.125 0 1.78125 0.625q0.671875 0.625 0.671875 1.5625q0 0.46875 -0.203125 0.9375q-0.1875 0.453125 -0.640625 0.953125q-0.4375 0.5 -1.484375 1.390625q-0.875 0.71875 -1.125 0.984375q-0.234375 0.265625 -0.40625 0.53125l3.859375 0z" fill-rule="nonzero"></path><path fill="#000000" fill-opacity="0.0" d="m166.0 213.0l65.00787 0l0 21.007874l-65.00787 0z" fill-rule="nonzero"></path><path fill="#000000" fill-opacity="0.0" d="m197.54068 176.54724l44.0 0l0 21.007874l-44.0 0z" fill-rule="nonzero"></path><path fill="#000000" d="m207.44693 195.78725l0 -7.875l5.3125 0l0 0.9375l-4.28125 0l0 2.4375l3.703125 0l0 0.921875l-3.703125 0l0 3.578125l-1.03125 0zm6.634262 0l0 -7.875l1.03125 0l0 7.875l-1.03125 0zm2.7731476 0l0 -7.875l1.0625 0l4.140625 6.1875l0 -6.1875l1.0 0l0 7.875l-1.078125 0l-4.125 -6.1875l0 6.1875l-1.0 0z" fill-rule="nonzero"></path><path fill="#000000" fill-opacity="0.0" d="m127.49606 221.00787l202.99213 30.992126" fill-rule="nonzero"></path><path stroke="#674ea7" stroke-width="1.0" stroke-linejoin="round" stroke-linecap="butt" d="m127.49606 221.00787l197.06085 30.086548" fill-rule="evenodd"></path><path fill="#674ea7" stroke="#674ea7" stroke-width="1.0" stroke-linecap="butt" d="m324.30762 252.72725l4.7354126 -0.94789124l-4.2368164 -2.3177338z" fill-rule="evenodd"></path><path fill="#000000" fill-opacity="0.0" d="m197.54068 210.0l94.99213 0l0 21.007874l-94.99213 0z" fill-rule="nonzero"></path><path fill="#000000" d="m207.44693 229.24l0 -7.875l5.3125 0l0 0.9375l-4.28125 0l0 2.4375l3.703125 0l0 0.921875l-3.703125 0l0 3.578125l-1.03125 0zm6.634262 0l0 -7.875l1.03125 0l0 7.875l-1.03125 0zm2.7731476 0l0 -7.875l1.0625 0l4.140625 6.1875l0 -6.1875l1.0 0l0 7.875l-1.078125 0l-4.125 -6.1875l0 6.1875l-1.0 0zm9.796875 0l3.03125 -7.875l1.109375 0l3.234375 7.875l-1.1875 0l-0.921875 -2.390625l-3.296875 0l-0.859375 2.390625l-1.109375 0zm2.265625 -3.234375l2.671875 0l-0.8125 -2.1875q-0.375 -0.984375 -0.5625 -1.625q-0.15625 0.75 -0.421875 1.5l-0.875 2.3125zm11.3263855 0.46875l1.046875 0.265625q-0.328125 1.28125 -1.1875 1.96875q-0.84375 0.671875 -2.078125 0.671875q-1.28125 0 -2.078125 -0.515625q-0.796875 -0.53125 -1.21875 -1.515625q-0.40625 -0.984375 -0.40625 -2.109375q0 -1.21875 0.46875 -2.140625q0.46875 -0.921875 1.328125 -1.390625q0.875 -0.484375 1.921875 -0.484375q1.1875 0 1.984375 0.609375q0.8125 0.59375 1.125 1.6875l-1.03125 0.25q-0.265625 -0.859375 -0.796875 -1.25q-0.515625 -0.390625 -1.296875 -0.390625q-0.921875 0 -1.53125 0.4375q-0.609375 0.421875 -0.859375 1.15625q-0.234375 0.734375 -0.234375 1.515625q0 1.0 0.28125 1.75q0.296875 0.75 0.90625 1.125q0.625 0.375 1.34375 0.375q0.875 0 1.484375 -0.5q0.609375 -0.515625 0.828125 -1.515625zm2.0393524 2.765625l0 -7.875l1.03125 0l0 3.90625l3.921875 -3.90625l1.40625 0l-3.296875 3.1875l3.4375 4.6875l-1.375 0l-2.796875 -3.984375l-1.296875 1.25l0 2.734375l-1.03125 0z" fill-rule="nonzero"></path><path fill="#000000" fill-opacity="0.0" d="m197.54068 236.0l94.99213 0l0 21.007874l-94.99213 0z" fill-rule="nonzero"></path><path fill="#000000" d="m206.52505 255.24l3.03125 -7.875l1.109375 0l3.234375 7.875l-1.1875 0l-0.921875 -2.390625l-3.296875 0l-0.859375 2.390625l-1.109375 0zm2.265625 -3.234375l2.671875 0l-0.8125 -2.1875q-0.375 -0.984375 -0.5625 -1.625q-0.15625 0.75 -0.421875 1.5l-0.875 2.3125zm11.3263855 0.46875l1.046875 0.265625q-0.328125 1.28125 -1.1875 1.96875q-0.84375 0.671875 -2.078125 0.671875q-1.28125 0 -2.078125 -0.515625q-0.796875 -0.53125 -1.21875 -1.515625q-0.40625 -0.984375 -0.40625 -2.109375q0 -1.21875 0.46875 -2.140625q0.46875 -0.921875 1.328125 -1.390625q0.875 -0.484375 1.921875 -0.484375q1.1875 0 1.984375 0.609375q0.8125 0.59375 1.125 1.6875l-1.03125 0.25q-0.265625 -0.859375 -0.796875 -1.25q-0.515625 -0.390625 -1.296875 -0.390625q-0.921875 0 -1.53125 0.4375q-0.609375 0.421875 -0.859375 1.15625q-0.234375 0.734375 -0.234375 1.515625q0 1.0 0.28125 1.75q0.296875 0.75 0.90625 1.125q0.625 0.375 1.34375 0.375q0.875 0 1.484375 -0.5q0.609375 -0.515625 0.828125 -1.515625zm2.0393524 2.765625l0 -7.875l1.03125 0l0 3.90625l3.921875 -3.90625l1.40625 0l-3.296875 3.1875l3.4375 4.6875l-1.375 0l-2.796875 -3.984375l-1.296875 1.25l0 2.734375l-1.03125 0z" fill-rule="nonzero"></path><path fill="#000000" fill-opacity="0.0" d="m332.0 198.0l-206.01575 13.007874" fill-rule="nonzero"></path><path stroke="#674ea7" stroke-width="1.0" stroke-linejoin="round" stroke-linecap="butt" d="m332.0 198.0l-200.02768 12.629776" fill-rule="evenodd"></path><path fill="#674ea7" stroke="#674ea7" stroke-width="1.0" stroke-linecap="butt" d="m131.86824 208.98134l-4.424988 1.9344177l4.6331635 1.3624725z" fill-rule="evenodd"></path><path fill="#000000" fill-opacity="0.0" d="m332.0 258.00787l-206.01575 13.007874" fill-rule="nonzero"></path><path stroke="#674ea7" stroke-width="1.0" stroke-linejoin="round" stroke-linecap="butt" d="m332.0 258.00787l-200.02768 12.629791" fill-rule="evenodd"></path><path fill="#674ea7" stroke="#674ea7" stroke-width="1.0" stroke-linecap="butt" d="m131.86824 268.9892l-4.424988 1.9344177l4.6331635 1.3624878z" fill-rule="evenodd"></path><path fill="#000000" fill-opacity="0.0" d="m126.0 309.0l210.01575 12.0" fill-rule="nonzero"></path><path stroke="#595959" stroke-width="1.0" stroke-linejoin="round" stroke-linecap="butt" d="m126.0 309.0l204.02554 11.657715" fill-rule="evenodd"></path><path fill="#595959" stroke="#595959" stroke-width="1.0" stroke-linecap="butt" d="m329.9313 322.30676l4.6249084 -1.3901672l-4.4364624 -1.907898z" fill-rule="evenodd"></path><path fill="#000000" fill-opacity="0.0" d="m334.0 327.0l-208.0 12.0" fill-rule="nonzero"></path><path stroke="#595959" stroke-width="1.0" stroke-linejoin="round" stroke-linecap="butt" d="m334.0 327.0l-202.00996 11.654419" fill-rule="evenodd"></path><path fill="#595959" stroke="#595959" stroke-width="1.0" stroke-linecap="butt" d="m131.89491 337.00543l-4.43544 1.9103699l4.625702 1.3876038z" fill-rule="evenodd"></path><path fill="#000000" fill-opacity="0.0" d="m126.0 345.25198l210.01575 12.0" fill-rule="nonzero"></path><path stroke="#595959" stroke-width="1.0" stroke-linejoin="round" stroke-linecap="butt" d="m126.0 345.25198l204.02554 11.657715" fill-rule="evenodd"></path><path fill="#595959" stroke="#595959" stroke-width="1.0" stroke-linecap="butt" d="m329.9313 358.55875l4.6249084 -1.3901672l-4.4364624 -1.9079285z" fill-rule="evenodd"></path><path fill="#000000" fill-opacity="0.0" d="m200.0 283.35434l57.007874 0l0 21.007874l-57.007874 0z" fill-rule="nonzero"></path><path fill="#000000" d="m209.5 300.06308l0.984375 -0.078125q0.0625 0.578125 0.3125 0.96875q0.265625 0.375 0.796875 0.609375q0.53125 0.234375 1.203125 0.234375q0.609375 0 1.0625 -0.171875q0.453125 -0.1875 0.671875 -0.484375q0.234375 -0.3125 0.234375 -0.6875q0 -0.375 -0.21875 -0.640625q-0.21875 -0.28125 -0.71875 -0.46875q-0.3125 -0.125 -1.40625 -0.375q-1.078125 -0.265625 -1.515625 -0.5q-0.5625 -0.296875 -0.84375 -0.734375q-0.265625 -0.4375 -0.265625 -0.984375q0 -0.59375 0.328125 -1.109375q0.34375 -0.515625 0.984375 -0.78125q0.65625 -0.28125 1.453125 -0.28125q0.875 0 1.546875 0.296875q0.671875 0.28125 1.03125 0.828125q0.359375 0.546875 0.390625 1.234375l-1.0 0.078125q-0.078125 -0.75 -0.546875 -1.125q-0.46875 -0.390625 -1.375 -0.390625q-0.9375 0 -1.375 0.359375q-0.4375 0.34375 -0.4375 0.828125q0 0.421875 0.3125 0.703125q0.296875 0.265625 1.5625 0.5625q1.28125 0.28125 1.75 0.5q0.6875 0.3125 1.015625 0.796875q0.328125 0.484375 0.328125 1.125q0 0.625 -0.359375 1.1875q-0.359375 0.546875 -1.046875 0.859375q-0.671875 0.3125 -1.515625 0.3125q-1.0625 0 -1.78125 -0.3125q-0.71875 -0.3125 -1.140625 -0.9375q-0.40625 -0.625 -0.421875 -1.421875zm9.6701355 2.53125l0 -3.328125l-3.03125 -4.546875l1.265625 0l1.5625 2.375q0.421875 0.671875 0.796875 1.328125q0.34375 -0.609375 0.859375 -1.390625l1.515625 -2.3125l1.21875 0l-3.140625 4.546875l0 3.328125l-1.046875 0zm4.8888855 0l0 -7.875l1.0625 0l4.140625 6.1875l0 -6.1875l1.0 0l0 7.875l-1.078125 0l-4.125 -6.1875l0 6.1875l-1.0 0z" fill-rule="nonzero"></path><path fill="#000000" fill-opacity="0.0" d="m199.49606 309.0l82.01575 0l0 21.007874l-82.01575 0z" fill-rule="nonzero"></path><path fill="#000000" d="m208.99606 325.70874l0.984375 -0.078125q0.0625 0.578125 0.3125 0.96875q0.265625 0.375 0.796875 0.609375q0.53125 0.234375 1.203125 0.234375q0.609375 0 1.0625 -0.171875q0.453125 -0.1875 0.671875 -0.484375q0.234375 -0.3125 0.234375 -0.6875q0 -0.375 -0.21875 -0.640625q-0.21875 -0.28125 -0.71875 -0.46875q-0.3125 -0.125 -1.40625 -0.375q-1.078125 -0.265625 -1.515625 -0.5q-0.5625 -0.296875 -0.84375 -0.734375q-0.265625 -0.4375 -0.265625 -0.984375q0 -0.59375 0.328125 -1.109375q0.34375 -0.515625 0.984375 -0.78125q0.65625 -0.28125 1.453125 -0.28125q0.875 0 1.546875 0.296875q0.671875 0.28125 1.03125 0.828125q0.359375 0.546875 0.390625 1.234375l-1.0 0.078125q-0.078125 -0.75 -0.546875 -1.125q-0.46875 -0.390625 -1.375 -0.390625q-0.9375 0 -1.375 0.359375q-0.4375 0.34375 -0.4375 0.828125q0 0.421875 0.3125 0.703125q0.296875 0.265625 1.5625 0.5625q1.28125 0.28125 1.75 0.5q0.6875 0.3125 1.015625 0.796875q0.328125 0.484375 0.328125 1.125q0 0.625 -0.359375 1.1875q-0.359375 0.546875 -1.046875 0.859375q-0.671875 0.3125 -1.515625 0.3125q-1.0625 0 -1.78125 -0.3125q-0.71875 -0.3125 -1.140625 -0.9375q-0.40625 -0.625 -0.421875 -1.421875zm9.6701355 2.53125l0 -3.328125l-3.03125 -4.546875l1.265625 0l1.5625 2.375q0.421875 0.671875 0.796875 1.328125q0.34375 -0.609375 0.859375 -1.390625l1.515625 -2.3125l1.21875 0l-3.140625 4.546875l0 3.328125l-1.046875 0zm4.8888855 0l0 -7.875l1.0625 0l4.140625 6.1875l0 -6.1875l1.0 0l0 7.875l-1.078125 0l-4.125 -6.1875l0 6.1875l-1.0 0zm9.796875 0l3.03125 -7.875l1.109375 0l3.234375 7.875l-1.1875 0l-0.921875 -2.390625l-3.296875 0l-0.859375 2.390625l-1.109375 0zm2.265625 -3.234375l2.671875 0l-0.8125 -2.1875q-0.375 -0.984375 -0.5625 -1.625q-0.15625 0.75 -0.421875 1.5l-0.875 2.3125zm11.3263855 0.46875l1.046875 0.265625q-0.328125 1.28125 -1.1875 1.96875q-0.84375 0.671875 -2.078125 0.671875q-1.28125 0 -2.078125 -0.515625q-0.796875 -0.53125 -1.21875 -1.515625q-0.40625 -0.984375 -0.40625 -2.109375q0 -1.21875 0.46875 -2.140625q0.46875 -0.921875 1.328125 -1.390625q0.875 -0.484375 1.921875 -0.484375q1.1875 0 1.984375 0.609375q0.8125 0.59375 1.125 1.6875l-1.03125 0.25q-0.265625 -0.859375 -0.796875 -1.25q-0.515625 -0.390625 -1.296875 -0.390625q-0.921875 0 -1.53125 0.4375q-0.609375 0.421875 -0.859375 1.15625q-0.234375 0.734375 -0.234375 1.515625q0 1.0 0.28125 1.75q0.296875 0.75 0.90625 1.125q0.625 0.375 1.34375 0.375q0.875 0 1.484375 -0.5q0.609375 -0.515625 0.828125 -1.515625zm2.0393524 2.765625l0 -7.875l1.03125 0l0 3.90625l3.921875 -3.90625l1.40625 0l-3.296875 3.1875l3.4375 4.6875l-1.375 0l-2.796875 -3.984375l-1.296875 1.25l0 2.734375l-1.03125 0z" fill-rule="nonzero"></path><path fill="#000000" fill-opacity="0.0" d="m200.0 325.6378l57.007874 0l0 21.007874l-57.007874 0z" fill-rule="nonzero"></path><path fill="#000000" d="m208.98438 344.8778l3.03125 -7.875l1.109375 0l3.234375 7.875l-1.1875 0l-0.921875 -2.390625l-3.296875 0l-0.859375 2.390625l-1.109375 0zm2.265625 -3.234375l2.671875 0l-0.8125 -2.1875q-0.375 -0.984375 -0.5625 -1.625q-0.15625 0.75 -0.421875 1.5l-0.875 2.3125zm11.3263855 0.46875l1.046875 0.265625q-0.328125 1.28125 -1.1875 1.96875q-0.84375 0.671875 -2.078125 0.671875q-1.28125 0 -2.078125 -0.515625q-0.796875 -0.53125 -1.21875 -1.515625q-0.40625 -0.984375 -0.40625 -2.109375q0 -1.21875 0.46875 -2.140625q0.46875 -0.921875 1.328125 -1.390625q0.875 -0.484375 1.921875 -0.484375q1.1875 0 1.984375 0.609375q0.8125 0.59375 1.125 1.6875l-1.03125 0.25q-0.265625 -0.859375 -0.796875 -1.25q-0.515625 -0.390625 -1.296875 -0.390625q-0.921875 0 -1.53125 0.4375q-0.609375 0.421875 -0.859375 1.15625q-0.234375 0.734375 -0.234375 1.515625q0 1.0 0.28125 1.75q0.296875 0.75 0.90625 1.125q0.625 0.375 1.34375 0.375q0.875 0 1.484375 -0.5q0.609375 -0.515625 0.828125 -1.515625zm2.0393524 2.765625l0 -7.875l1.03125 0l0 3.90625l3.921875 -3.90625l1.40625 0l-3.296875 3.1875l3.4375 4.6875l-1.375 0l-2.796875 -3.984375l-1.296875 1.25l0 2.734375l-1.03125 0z" fill-rule="nonzero"></path><path fill="#000000" fill-opacity="0.0" d="m123.0 134.0l212.0 250.01575" fill-rule="nonzero"></path><path stroke="#ffab40" stroke-width="1.0" stroke-linejoin="round" stroke-linecap="butt" d="m123.0 134.0l208.11957 245.43948" fill-rule="evenodd"></path><path fill="#ffab40" stroke="#ffab40" stroke-width="1.0" stroke-linecap="butt" d="m329.85977 380.50772l4.194763 2.3930054l-1.6751709 -4.52948z" fill-rule="evenodd"></path><path fill="#000000" fill-opacity="0.0" d="m347.0 199.0l0 0c5.801178 0 10.503937 0.7837677 10.503937 1.7505798l0 31.805923c0 0.96681213 4.702759 1.7505798 10.503937 1.7505798l0 0c-5.801178 0 -10.503937 0.7837677 -10.503937 1.7505951l0 31.805908c0 0.9668274 -4.702759 1.7505798 -10.503937 1.7505798z" fill-rule="nonzero"></path><path fill="#000000" fill-opacity="0.0" d="m347.0 199.0l0 0c5.801178 0 10.503937 0.7837677 10.503937 1.7505798l0 31.805923c0 0.96681213 4.702759 1.7505798 10.503937 1.7505798l0 0c-5.801178 0 -10.503937 0.7837677 -10.503937 1.7505951l0 31.805908c0 0.9668274 -4.702759 1.7505798 -10.503937 1.7505798" fill-rule="nonzero"></path><path stroke="#595959" stroke-width="1.0" stroke-linejoin="round" stroke-linecap="butt" d="m347.0 199.0l0 0c5.801178 0 10.503937 0.7837677 10.503937 1.7505798l0 31.805923c0 0.96681213 4.702759 1.7505798 10.503937 1.7505798l0 0c-5.801178 0 -10.503937 0.7837677 -10.503937 1.7505951l0 31.805908c0 0.9668274 -4.702759 1.7505798 -10.503937 1.7505798" fill-rule="nonzero"></path><path fill="#000000" fill-opacity="0.0" d="m127.0 286.0l208.0 2.015747" fill-rule="nonzero"></path><path stroke="#595959" stroke-width="1.0" stroke-linejoin="round" stroke-linecap="butt" stroke-dasharray="4.0,3.0" d="m127.0 286.0l208.0 2.015747" fill-rule="nonzero"></path><path fill="#000000" fill-opacity="0.0" d="m347.0 309.0l0 0c5.801178 0 10.503937 0.78375244 10.503937 1.7505798l0 23.002777c0 0.9668274 4.702759 1.7505798 10.503937 1.7505798l0 0c-5.801178 0 -10.503937 0.78375244 -10.503937 1.7505798l0 23.002777c0 0.9668274 -4.702759 1.7505798 -10.503937 1.7505798z" fill-rule="nonzero"></path><path fill="#000000" fill-opacity="0.0" d="m347.0 309.0l0 0c5.801178 0 10.503937 0.78375244 10.503937 1.7505798l0 23.002777c0 0.9668274 4.702759 1.7505798 10.503937 1.7505798l0 0c-5.801178 0 -10.503937 0.78375244 -10.503937 1.7505798l0 23.002777c0 0.9668274 -4.702759 1.7505798 -10.503937 1.7505798" fill-rule="nonzero"></path><path stroke="#595959" stroke-width="1.0" stroke-linejoin="round" stroke-linecap="butt" d="m347.0 309.0l0 0c5.801178 0 10.503937 0.78375244 10.503937 1.7505798l0 23.002777c0 0.9668274 4.702759 1.7505798 10.503937 1.7505798l0 0c-5.801178 0 -10.503937 0.78375244 -10.503937 1.7505798l0 23.002777c0 0.9668274 -4.702759 1.7505798 -10.503937 1.7505798" fill-rule="nonzero"></path><path fill="#000000" fill-opacity="0.0" d="m394.0 269.0l0 0c5.801178 0 10.503937 0.78375244 10.503937 1.7505798l0 16.49884c0 0.9668274 4.702759 1.7505798 10.503937 1.7505798l0 0c-5.801178 0 -10.503937 0.78375244 -10.503937 1.7505798l0 16.49884c0 0.9668274 -4.702759 1.7505798 -10.503937 1.7505798z" fill-rule="nonzero"></path><path fill="#000000" fill-opacity="0.0" d="m394.0 269.0l0 0c5.801178 0 10.503937 0.78375244 10.503937 1.7505798l0 16.49884c0 0.9668274 4.702759 1.7505798 10.503937 1.7505798l0 0c-5.801178 0 -10.503937 0.78375244 -10.503937 1.7505798l0 16.49884c0 0.9668274 -4.702759 1.7505798 -10.503937 1.7505798" fill-rule="nonzero"></path><path stroke="#595959" stroke-width="1.0" stroke-linejoin="round" stroke-linecap="butt" d="m394.0 269.0l0 0c5.801178 0 10.503937 0.78375244 10.503937 1.7505798l0 16.49884c0 0.9668274 4.702759 1.7505798 10.503937 1.7505798l0 0c-5.801178 0 -10.503937 0.78375244 -10.503937 1.7505798l0 16.49884c0 0.9668274 -4.702759 1.7505798 -10.503937 1.7505798" fill-rule="nonzero"></path><path fill="#000000" fill-opacity="0.0" d="m379.0 221.00787l77.98425 0l0 21.007874l-77.98425 0z" fill-rule="nonzero"></path><path fill="#000000" d="m392.46875 234.40413q0.4375 -1.03125 0.640625 -1.984375l0.78125 0.21875q0.171875 0.125 -0.09375 0.21875q-0.25 0.90625 -0.640625 1.796875l-0.6875 -0.25zm5.765625 -1.8125q0.03125 0.3125 -0.34375 0.09375q-1.421875 0.296875 -2.890625 0.46875l0 1.84375l3.4375 0l0 0.828125l-1.15625 0l0 5.234375l-0.859375 0l0 -5.234375l-1.421875 0l0 1.84375q0 2.1875 -1.546875 3.484375l-0.640625 -0.734375l0.390625 -0.34375l-3.359375 0l0 0.8125l-0.859375 0l0 -8.9375l0.828125 0q0.34375 0.046875 0.03125 0.265625l0 2.828125l1.59375 0l0 -3.265625l0.6875 0q0.34375 0.046875 0.046875 0.265625l0 3.0l1.625 0l0 0.6875l-1.625 0l0 0.34375q0.9375 0.515625 1.5 0.984375l-0.515625 0.828125q-0.390625 -0.4375 -0.984375 -1.0l0 1.984375l-0.734375 0l0 -1.8125q-0.46875 0.828125 -1.03125 1.34375l-0.46875 -0.6875q0.90625 -0.828125 1.453125 -1.984375l-1.546875 0l0 3.53125l3.65625 0l0 0.515625q0.640625 -0.734375 0.640625 -2.15625l0 -5.40625l0.828125 0.203125q1.453125 -0.171875 2.484375 -0.765625l0.78125 0.9375zm-7.78125 2.109375q-0.21875 -1.28125 -0.46875 -1.890625l0.71875 -0.25q0.34375 0.859375 0.484375 1.890625l-0.734375 0.25zm9.453125 5.546875q2.53125 -0.6875 2.53125 -2.453125l0 -0.984375l-2.75 0l0 -0.953125l2.75 0l0 -2.609375l-2.109375 0l0 -0.953125l8.34375 0l0 0.953125l-2.015625 0l0 2.609375l2.65625 0l0 0.953125l-2.65625 0l0 4.25l-1.0 0l0 -4.25l-2.234375 0l0 0.984375q0 2.5 -3.09375 3.4375l-0.421875 -0.984375zm3.515625 -7.0l0 2.609375l2.234375 0l0 -2.609375l-2.234375 0z" fill-rule="nonzero"></path><path fill="#000000" d="m415.45312 232.7635q0.4375 -0.984375 0.515625 -1.453125q0.6875 0.296875 1.0 0.390625q-0.21875 0.171875 -0.65625 1.0625l2.328125 0q0.90625 0 1.421875 -0.03125l0 0.765625q-0.5625 -0.046875 -1.296875 -0.046875l-2.796875 0q-0.203125 0.4375 -1.03125 1.765625l1.71875 0q0 -0.8125 -0.03125 -1.375l0.859375 0q-0.046875 0.46875 -0.046875 1.375q2.140625 0 2.28125 -0.046875l0 0.828125q-0.265625 -0.09375 -2.28125 -0.09375l0 1.421875l1.59375 0q0.9375 0 1.203125 -0.046875l0 0.78125q-0.515625 -0.046875 -1.203125 -0.046875l-1.59375 0q0 1.203125 0.046875 2.109375l-0.859375 0q0.03125 -0.90625 0.03125 -2.109375q-2.953125 0 -3.265625 0.046875l0 -0.78125q1.171875 0.046875 3.265625 0.046875l0 -1.421875l-1.375 0q-0.9375 0.046875 -1.203125 0.125l-0.296875 -0.765625q0.34375 -0.21875 0.65625 -0.640625q0.328125 -0.4375 0.671875 -1.171875q-1.109375 0 -1.71875 0.046875l0 -0.765625q0.5625 0.03125 2.0625 0.03125zm-2.65625 2.453125q-0.046875 0.859375 -0.046875 1.421875l0 2.65625q1.25 1.078125 3.828125 1.078125q2.625 0 4.03125 -0.125q-0.25 0.4375 -0.34375 0.953125q-1.71875 0 -3.09375 -0.03125q-1.375 -0.015625 -2.453125 -0.21875q-1.0625 -0.1875 -1.6875 -0.625q-0.625 -0.421875 -1.015625 -0.0625q-0.375 0.375 -0.859375 0.9375q-0.25 -0.34375 -0.6875 -0.65625q1.0 -0.8125 1.421875 -1.109375l0 -3.53125q-0.5625 0 -1.203125 0.046875l0 -0.78125q0.6875 0.046875 1.25 0.046875l0.859375 0zm-1.125 -3.484375q0.828125 1.171875 1.375 2.0625q-0.375 0.140625 -0.8125 0.4375q-0.21875 -0.640625 -1.28125 -1.984375q0.375 -0.34375 0.71875 -0.515625z" fill-rule="nonzero"></path><path fill="#000000" d="m427.65625 235.77913l0.34375 0.125q0.171875 0.171875 -0.125 0.21875l-0.390625 0.765625l3.265625 0l0 0.828125l-1.109375 0q-0.34375 1.109375 -0.8125 1.671875q1.0625 0.390625 2.015625 0.953125l-0.515625 0.765625q-1.421875 -0.765625 -2.109375 -1.078125q-1.421875 0.953125 -3.3125 1.25l-0.296875 -0.765625q1.8125 -0.21875 2.75 -0.875l-1.109375 -0.46875l-0.265625 0.390625l-0.6875 -0.34375l0.859375 -1.5l-1.28125 0l0 -0.828125l1.71875 0l0.515625 -1.109375l-2.625 0l0 -0.8125l1.765625 0l-0.484375 -1.546875l-0.640625 0l0 -0.828125l2.109375 0l0 -1.203125l0.8125 0q0.34375 0.046875 0.046875 0.265625l0 0.9375l2.40625 0l0 0.828125l-0.90625 0l-0.46875 1.546875l1.96875 0l0 0.8125l-3.4375 0zm0.390625 3.3125q0.4375 -0.484375 0.6875 -1.375l-1.625 0l-0.515625 0.859375l1.453125 0.515625zm-0.90625 -4.125l1.125 0l0.421875 -1.546875l-2.015625 0l0.46875 1.546875zm-4.59375 -3.578125l0.8125 0q0.34375 0.046875 0.046875 0.265625l0 1.671875l1.203125 0l0 0.8125l-1.203125 0l0 2.234375l0.90625 -0.296875l0.296875 0.734375l-1.203125 0.46875l0 3.40625q0 0.59375 -0.59375 0.59375l-0.828125 0l-0.125 -0.8125l0.515625 0q0.171875 0 0.171875 -0.171875l0 -2.71875l-0.734375 0.21875q-0.03125 0.296875 -0.203125 0.125l-0.34375 -0.9375l1.28125 -0.34375l0 -2.5l-1.15625 0l0 -0.8125l1.15625 0l0 -1.9375z" fill-rule="nonzero"></path><path fill="#000000" fill-opacity="0.0" d="m380.00787 322.49606l77.98425 0l0 21.007874l-77.98425 0z" fill-rule="nonzero"></path><path fill="#000000" d="m393.47662 341.90793q1.765625 -0.953125 1.765625 -3.21875l0 -4.953125l0.90625 0.171875l2.3125 -0.71875l0.640625 0.859375q0.09375 0.25 -0.296875 0.078125l-2.703125 0.515625l0 1.84375l3.390625 0l0 0.828125l-1.28125 0l0 5.375l-0.859375 0l0 -5.375l-1.25 0l0 1.625q0 2.53125 -2.15625 3.78125l-0.46875 -0.8125zm-0.8125 0.8125l-0.859375 0l0 -2.578125q-0.6875 1.125 -1.5 1.765625l-0.65625 -0.78125q1.203125 -0.859375 2.03125 -2.140625l-1.8125 0l0 -0.8125l1.9375 0l0 -0.953125l-2.1875 0l0 -0.8125l3.0 0l0.46875 -1.546875l-3.171875 0l0 -0.8125l1.890625 0l0 -1.203125l0.8125 0q0.34375 0.03125 0.046875 0.25l0 0.953125l1.890625 0l0 0.8125l-0.5625 0l-0.59375 1.546875l1.375 0l0 0.8125l-2.109375 0l0 0.953125l1.890625 0l0 0.8125l-1.890625 0l0 0.390625q0.59375 0.171875 1.671875 0.890625l-0.515625 0.859375q-0.59375 -0.59375 -1.15625 -0.9375l0 2.53125zm-1.71875 -6.40625q-0.171875 -0.59375 -0.46875 -1.15625l0.8125 -0.25q0.34375 0.546875 0.515625 1.15625l-0.859375 0.25zm19.546875 5.203125l-0.25 0.828125l-4.734375 0q-1.71875 0 -2.796875 -1.046875q-0.8125 1.046875 -1.625 1.515625l-0.5625 -0.859375q0.90625 -0.484375 1.640625 -1.34375q-0.828125 -1.375 -1.078125 -2.265625l0.734375 -0.171875q0.203125 0.6875 0.765625 1.625q0.390625 -1.078125 0.390625 -2.109375l0 -0.375l-0.90625 0l-0.390625 0.546875l-0.8125 -0.34375q0.953125 -1.578125 1.71875 -3.171875l-1.765625 0l0 -0.8125l1.9375 0l0.171875 -0.21875l0.859375 0.640625q0.09375 0.09375 -0.171875 0.171875l-1.15625 2.359375l1.375 0l0 0.65625q0 2.09375 -0.6875 3.46875q0.859375 0.90625 2.703125 0.90625l4.640625 0zm-4.03125 -6.234375l0 -0.71875l-2.03125 0l0 -0.6875l2.03125 0l0 -1.078125l0.6875 0q0.34375 0.046875 0.03125 0.25l0 0.828125l2.234375 0l0 1.40625l0.859375 0l0 0.6875l-0.859375 0l0 1.46875l-2.234375 0l0 0.59375l2.375 0l0 0.6875l-2.375 0l0 0.828125l2.890625 0l0 0.6875l-2.890625 0l0 0.9375l-0.71875 0l0 -0.9375l-2.546875 0l0 -0.6875l2.546875 0l0 -0.828125l-1.984375 0l0 -0.6875l1.984375 0l0 -0.59375l-2.03125 0l0 -0.6875l2.03125 0l0 -0.78125l-2.796875 0l0 -0.6875l2.796875 0zm2.234375 0.6875l-1.515625 0l0 0.78125l1.515625 0l0 -0.78125zm0 -1.40625l-1.515625 0l0 0.71875l1.515625 0l0 -0.71875z" fill-rule="nonzero"></path><path fill="#000000" d="m416.461 334.25168q0.4375 -0.984375 0.515625 -1.453125q0.6875 0.296875 1.0 0.390625q-0.21875 0.171875 -0.65625 1.0625l2.328125 0q0.90625 0 1.421875 -0.03125l0 0.765625q-0.5625 -0.046875 -1.296875 -0.046875l-2.796875 0q-0.203125 0.4375 -1.03125 1.765625l1.71875 0q0 -0.8125 -0.03125 -1.375l0.859375 0q-0.046875 0.46875 -0.046875 1.375q2.140625 0 2.28125 -0.046875l0 0.828125q-0.265625 -0.09375 -2.28125 -0.09375l0 1.421875l1.59375 0q0.9375 0 1.203125 -0.046875l0 0.78125q-0.515625 -0.046875 -1.203125 -0.046875l-1.59375 0q0 1.203125 0.046875 2.109375l-0.859375 0q0.03125 -0.90625 0.03125 -2.109375q-2.953125 0 -3.265625 0.046875l0 -0.78125q1.171875 0.046875 3.265625 0.046875l0 -1.421875l-1.375 0q-0.9375 0.046875 -1.203125 0.125l-0.296875 -0.765625q0.34375 -0.21875 0.65625 -0.640625q0.328125 -0.4375 0.671875 -1.171875q-1.109375 0 -1.71875 0.046875l0 -0.765625q0.5625 0.03125 2.0625 0.03125zm-2.65625 2.453125q-0.046875 0.859375 -0.046875 1.421875l0 2.65625q1.25 1.078125 3.828125 1.078125q2.625 0 4.03125 -0.125q-0.25 0.4375 -0.34375 0.953125q-1.71875 0 -3.09375 -0.03125q-1.375 -0.015625 -2.453125 -0.21875q-1.0625 -0.1875 -1.6875 -0.625q-0.625 -0.421875 -1.015625 -0.0625q-0.375 0.375 -0.859375 0.9375q-0.25 -0.34375 -0.6875 -0.65625q1.0 -0.8125 1.421875 -1.109375l0 -3.53125q-0.5625 0 -1.203125 0.046875l0 -0.78125q0.6875 0.046875 1.25 0.046875l0.859375 0zm-1.125 -3.484375q0.828125 1.171875 1.375 2.0625q-0.375 0.140625 -0.8125 0.4375q-0.21875 -0.640625 -1.28125 -1.984375q0.375 -0.34375 0.71875 -0.515625z" fill-rule="nonzero"></path><path fill="#000000" d="m428.66412 337.2673l0.34375 0.125q0.171875 0.171875 -0.125 0.21875l-0.390625 0.765625l3.265625 0l0 0.828125l-1.109375 0q-0.34375 1.109375 -0.8125 1.671875q1.0625 0.390625 2.015625 0.953125l-0.515625 0.765625q-1.421875 -0.765625 -2.109375 -1.078125q-1.421875 0.953125 -3.3125 1.25l-0.296875 -0.765625q1.8125 -0.21875 2.75 -0.875l-1.109375 -0.46875l-0.265625 0.390625l-0.6875 -0.34375l0.859375 -1.5l-1.28125 0l0 -0.828125l1.71875 0l0.515625 -1.109375l-2.625 0l0 -0.8125l1.765625 0l-0.484375 -1.546875l-0.640625 0l0 -0.828125l2.109375 0l0 -1.203125l0.8125 0q0.34375 0.046875 0.046875 0.265625l0 0.9375l2.40625 0l0 0.828125l-0.90625 0l-0.46875 1.546875l1.96875 0l0 0.8125l-3.4375 0zm0.390625 3.3125q0.4375 -0.484375 0.6875 -1.375l-1.625 0l-0.515625 0.859375l1.453125 0.515625zm-0.90625 -4.125l1.125 0l0.421875 -1.546875l-2.015625 0l0.46875 1.546875zm-4.59375 -3.578125l0.8125 0q0.34375 0.046875 0.046875 0.265625l0 1.671875l1.203125 0l0 0.8125l-1.203125 0l0 2.234375l0.90625 -0.296875l0.296875 0.734375l-1.203125 0.46875l0 3.40625q0 0.59375 -0.59375 0.59375l-0.828125 0l-0.125 -0.8125l0.515625 0q0.171875 0 0.171875 -0.171875l0 -2.71875l-0.734375 0.21875q-0.03125 0.296875 -0.203125 0.125l-0.34375 -0.9375l1.28125 -0.34375l0 -2.5l-1.15625 0l0 -0.8125l1.15625 0l0 -1.9375z" fill-rule="nonzero"></path><path fill="#000000" fill-opacity="0.0" d="m425.4672 271.75198l77.98425 0l0 21.007874l-77.98425 0z" fill-rule="nonzero"></path><path fill="#000000" d="m438.81094 283.1326q-0.046875 1.546875 -0.046875 3.734375q0 2.1875 0.046875 3.4375l-0.90625 0l0 -0.8125l-1.71875 0l0 1.40625l-0.90625 0q0.046875 -1.96875 0.046875 -3.953125q0 -2.015625 -0.046875 -3.8125l3.53125 0zm4.03125 1.28125q0 -1.28125 -0.03125 -2.40625l0.9375 0q-0.046875 1.125 -0.046875 2.40625q0.65625 0 1.375 -0.046875l0 0.828125q-0.71875 -0.046875 -1.375 -0.046875l0 5.75q0 0.65625 -0.515625 0.828125q-0.515625 0.171875 -1.328125 0.25q0 -0.515625 -0.46875 -0.984375q0.8125 0.09375 1.125 0.046875q0.328125 -0.046875 0.328125 -0.5625l0 -5.328125q-2.140625 0 -3.609375 0.046875l0 -0.828125q1.375 0.046875 3.609375 0.046875zm-4.9375 4.34375l0 -2.15625l-1.71875 0l0 2.15625l1.71875 0zm0 -2.875l0 -2.03125l-1.71875 0l0 2.03125l1.71875 0zm2.671875 0.421875q0.546875 0.90625 1.0625 1.9375q-0.421875 0.125 -0.890625 0.390625q-0.34375 -1.03125 -1.0 -1.9375q0.390625 -0.171875 0.828125 -0.390625zm12.203125 -1.421875q-0.046875 0.828125 -0.046875 1.421875l0 2.28125q0 0.5625 0.046875 1.328125l-4.34375 0q0.046875 -0.765625 0.046875 -1.375l0 -2.234375q0 -0.59375 -0.046875 -1.421875l4.34375 0zm2.3125 -2.265625q-0.046875 0.8125 -0.046875 1.625l0 6.3125q0.046875 1.0 -0.53125 1.203125q-0.578125 0.21875 -1.265625 0.3125q-0.046875 -0.515625 -0.34375 -1.03125q0.8125 0.046875 1.046875 -0.078125q0.234375 -0.140625 0.234375 -0.578125l0 -7.046875l-2.578125 0q-1.03125 0 -1.921875 0.046875l0 -0.8125q0.890625 0.046875 1.921875 0.046875l3.484375 0zm-9.015625 9.28125q0.078125 -0.859375 0.078125 -1.8125l0 -4.515625q0 -0.890625 -0.078125 -1.5l0.984375 0q-0.046875 0.640625 -0.046875 1.25l0 4.8125q0 0.859375 0.046875 1.765625l-0.984375 0zm5.84375 -2.671875l0 -1.59375l-2.625 0l0 1.59375l2.625 0zm0 -2.28125l0 -1.375l-2.625 0l0 1.375l2.625 0zm-4.171875 -5.0625q0.390625 0.515625 1.203125 1.625q-0.46875 0.21875 -0.90625 0.484375q-0.421875 -0.859375 -1.078125 -1.640625q0.484375 -0.34375 0.78125 -0.46875zm15.6875 3.0q-0.046875 0.828125 -0.046875 1.421875l0 2.28125q0 0.5625 0.046875 1.328125l-4.34375 0q0.046875 -0.765625 0.046875 -1.375l0 -2.234375q0 -0.59375 -0.046875 -1.421875l4.34375 0zm2.3125 -2.265625q-0.046875 0.8125 -0.046875 1.625l0 6.3125q0.046875 1.0 -0.53125 1.203125q-0.578125 0.21875 -1.265625 0.3125q-0.046875 -0.515625 -0.34375 -1.03125q0.8125 0.046875 1.046875 -0.078125q0.234375 -0.140625 0.234375 -0.578125l0 -7.046875l-2.578125 0q-1.03125 0 -1.921875 0.046875l0 -0.8125q0.890625 0.046875 1.921875 0.046875l3.484375 0zm-9.015625 9.28125q0.078125 -0.859375 0.078125 -1.8125l0 -4.515625q0 -0.890625 -0.078125 -1.5l0.984375 0q-0.046875 0.640625 -0.046875 1.25l0 4.8125q0 0.859375 0.046875 1.765625l-0.984375 0zm5.84375 -2.671875l0 -1.59375l-2.625 0l0 1.59375l2.625 0zm0 -2.28125l0 -1.375l-2.625 0l0 1.375l2.625 0zm-4.171875 -5.0625q0.390625 0.515625 1.203125 1.625q-0.46875 0.21875 -0.90625 0.484375q-0.421875 -0.859375 -1.078125 -1.640625q0.484375 -0.34375 0.78125 -0.46875z" fill-rule="nonzero"></path><path fill="#000000" d="m468.62344 288.8826l0.515625 0q0.3125 0 0.3125 -0.296875q0.03125 -1.984375 -1.0 -3.3125l0.828125 -2.015625l-1.125 0l0 8.59375l-0.859375 0l0 -9.28125l2.328125 0l0.171875 -0.21875l0.640625 0.5625l-0.171875 0.171875l-0.984375 2.140625q1.0625 1.59375 1.03125 3.140625q-0.046875 1.46875 -1.03125 1.46875l-0.5625 0l-0.09375 -0.953125zm7.09375 2.109375q0.171875 0 0.171875 -0.171875l0 -2.53125q-0.078125 0.34375 -0.421875 0.34375l-1.078125 0q-0.609375 0 -0.609375 -0.65625l0 -0.8125l-0.640625 0q0.046875 1.421875 -1.203125 2.0625l-0.390625 -0.6875q0.859375 -0.390625 0.859375 -1.375l-1.03125 0l0 4.6875l-0.71875 0l0 -5.375l5.96875 0l0 4.734375q0 0.59375 -0.609375 0.59375l-0.890625 0l-0.140625 -0.8125l0.734375 0zm-1.203125 -3.1875q0 0.3125 0.296875 0.3125l0.3125 0q0.203125 0 0.25 -0.4375l0.515625 0.125l0 -0.640625l-1.375 0l0 0.640625zm-2.3125 1.859375l0 -0.515625l2.921875 0l0 0.515625l-1.078125 0l0 1.59375l-0.734375 0l0 -1.59375l-1.109375 0zm-0.859375 -3.828125l0 -1.890625l4.59375 0l0 1.890625l-4.59375 0zm5.40625 -3.3125l0 0.6875l-6.09375 0l0 -0.6875l6.09375 0zm-4.6875 1.9375l0 0.859375l3.140625 0l0 -0.859375l-3.140625 0z" fill-rule="nonzero"></path><path fill="#000000" fill-opacity="0.0" d="m168.54855 484.49606l130.4567 -0.50393677" fill-rule="nonzero"></path><path stroke="#ffab40" stroke-width="1.0" stroke-linejoin="round" stroke-linecap="butt" d="m168.54855 484.49606l124.456726 -0.48077393" fill-rule="evenodd"></path><path fill="#ffab40" stroke="#ffab40" stroke-width="1.0" stroke-linecap="butt" d="m293.0117 485.66702l4.5316772 -1.6692505l-4.544464 -1.6341858z" fill-rule="evenodd"></path><path fill="#000000" fill-opacity="0.0" d="m168.54855 450.50394l135.46457 0l0 26.992126l-135.46457 0z" fill-rule="nonzero"></path><path fill="#000000" d="m182.1423 468.83768l0 -7.609375l0.953125 0q0.421875 0.09375 0.046875 0.34375l0 2.5l3.46875 0l0 0.9375l-3.46875 0l0 3.828125l4.46875 0l0 0.953125l-9.328125 0l0 -0.953125l3.859375 0zm16.328125 -3.828125l0 0.953125l-9.0625 0l0 -0.953125l9.0625 0zm6.453125 -2.65625q-1.671875 2.359375 -4.21875 3.390625l-0.46875 -0.8125q2.875 -1.296875 4.421875 -3.875l0.734375 0.21875q0.515625 0.171875 0.046875 0.390625q1.15625 1.765625 4.375 3.046875l-0.515625 0.859375q-2.953125 -1.203125 -4.375 -3.21875zm0.515625 1.671875q0.421875 0.09375 0.046875 0.34375l0 5.984375l-1.0 0l0 -6.328125l0.953125 0z" fill-rule="nonzero"></path><path fill="#000000" d="m216.00168 462.25955q0.4375 -0.984375 0.515625 -1.453125q0.6875 0.296875 1.0 0.390625q-0.21875 0.171875 -0.65625 1.0625l2.328125 0q0.90625 0 1.421875 -0.03125l0 0.765625q-0.5625 -0.046875 -1.296875 -0.046875l-2.796875 0q-0.203125 0.4375 -1.03125 1.765625l1.71875 0q0 -0.8125 -0.03125 -1.375l0.859375 0q-0.046875 0.46875 -0.046875 1.375q2.140625 0 2.28125 -0.046875l0 0.828125q-0.265625 -0.09375 -2.28125 -0.09375l0 1.421875l1.59375 0q0.9375 0 1.203125 -0.046875l0 0.78125q-0.515625 -0.046875 -1.203125 -0.046875l-1.59375 0q0 1.203125 0.046875 2.109375l-0.859375 0q0.03125 -0.90625 0.03125 -2.109375q-2.953125 0 -3.265625 0.046875l0 -0.78125q1.171875 0.046875 3.265625 0.046875l0 -1.421875l-1.375 0q-0.9375 0.046875 -1.203125 0.125l-0.296875 -0.765625q0.34375 -0.21875 0.65625 -0.640625q0.328125 -0.4375 0.671875 -1.171875q-1.109375 0 -1.71875 0.046875l0 -0.765625q0.5625 0.03125 2.0625 0.03125zm-2.65625 2.453125q-0.046875 0.859375 -0.046875 1.421875l0 2.65625q1.25 1.078125 3.828125 1.078125q2.625 0 4.03125 -0.125q-0.25 0.4375 -0.34375 0.953125q-1.71875 0 -3.09375 -0.03125q-1.375 -0.015625 -2.453125 -0.21875q-1.0625 -0.1875 -1.6875 -0.625q-0.625 -0.421875 -1.015625 -0.0625q-0.375 0.375 -0.859375 0.9375q-0.25 -0.34375 -0.6875 -0.65625q1.0 -0.8125 1.421875 -1.109375l0 -3.53125q-0.5625 0 -1.203125 0.046875l0 -0.78125q0.6875 0.046875 1.25 0.046875l0.859375 0zm-1.125 -3.484375q0.828125 1.171875 1.375 2.0625q-0.375 0.140625 -0.8125 0.4375q-0.21875 -0.640625 -1.28125 -1.984375q0.375 -0.34375 0.71875 -0.515625z" fill-rule="nonzero"></path><path fill="#000000" d="m228.2048 465.27518l0.34375 0.125q0.171875 0.171875 -0.125 0.21875l-0.390625 0.765625l3.265625 0l0 0.828125l-1.109375 0q-0.34375 1.109375 -0.8125 1.671875q1.0625 0.390625 2.015625 0.953125l-0.515625 0.765625q-1.421875 -0.765625 -2.109375 -1.078125q-1.421875 0.953125 -3.3125 1.25l-0.296875 -0.765625q1.8125 -0.21875 2.75 -0.875l-1.109375 -0.46875l-0.265625 0.390625l-0.6875 -0.34375l0.859375 -1.5l-1.28125 0l0 -0.828125l1.71875 0l0.515625 -1.109375l-2.625 0l0 -0.8125l1.765625 0l-0.484375 -1.546875l-0.640625 0l0 -0.828125l2.109375 0l0 -1.203125l0.8125 0q0.34375 0.046875 0.046875 0.265625l0 0.9375l2.40625 0l0 0.828125l-0.90625 0l-0.46875 1.546875l1.96875 0l0 0.8125l-3.4375 0zm0.390625 3.3125q0.4375 -0.484375 0.6875 -1.375l-1.625 0l-0.515625 0.859375l1.453125 0.515625zm-0.90625 -4.125l1.125 0l0.421875 -1.546875l-2.015625 0l0.46875 1.546875zm-4.59375 -3.578125l0.8125 0q0.34375 0.046875 0.046875 0.265625l0 1.671875l1.203125 0l0 0.8125l-1.203125 0l0 2.234375l0.90625 -0.296875l0.296875 0.734375l-1.203125 0.46875l0 3.40625q0 0.59375 -0.59375 0.59375l-0.828125 0l-0.125 -0.8125l0.515625 0q0.171875 0 0.171875 -0.171875l0 -2.71875l-0.734375 0.21875q-0.03125 0.296875 -0.203125 0.125l-0.34375 -0.9375l1.28125 -0.34375l0 -2.5l-1.15625 0l0 -0.8125l1.15625 0l0 -1.9375zm18.953125 1.03125q0.171875 0.21875 -0.296875 0.140625q-0.859375 0.171875 -1.546875 0.25l0 1.984375l1.921875 0l0 0.8125l-1.921875 0l0 2.453125l2.1875 0l0 0.8125l-5.96875 0l0 -0.8125l1.03125 0l0 -3.875l0.8125 0q0.34375 0.046875 0.046875 0.265625l0 3.609375l1.03125 0l0 -5.15625q-1.34375 0.125 -2.453125 0.078125l-0.21875 -0.8125q2.53125 0.046875 4.8125 -0.640625l0.5625 0.890625zm-9.03125 7.828125q1.078125 -0.609375 1.515625 -1.125q-0.5625 -0.9375 -1.0 -2.140625l0.828125 -0.265625q0.34375 1.0 0.640625 1.640625q0.34375 -1.375 0.46875 -2.703125l-1.078125 0q-0.203125 0.296875 -0.46875 0.640625l-0.765625 -0.515625q1.28125 -1.8125 2.015625 -3.1875l-2.1875 0l0 -0.8125l2.484375 0l0.21875 -0.21875l0.765625 0.609375l-0.171875 0.125q-0.71875 1.296875 -1.453125 2.53125l1.5 0q-0.125 2.71875 -0.734375 4.34375q0.90625 0.6875 2.453125 0.6875l4.640625 0l-0.171875 0.953125l-4.421875 0q-1.84375 0 -3.015625 -1.0q-0.546875 0.703125 -1.578125 1.25l-0.484375 -0.8125z" fill-rule="nonzero"></path><path fill="#000000" d="m252.78293 461.44705q-0.03125 1.25 -0.03125 1.9375q0 0.6875 0.03125 1.96875l-0.859375 0l0 -0.46875l-3.265625 0q-0.03125 1.15625 -0.3125 1.984375q-0.28125 0.8125 -1.015625 2.0625q-0.34375 -0.265625 -0.859375 -0.484375q0.6875 -0.765625 0.96875 -1.5q0.28125 -0.734375 0.359375 -1.375q0.09375 -0.640625 0.09375 -1.671875q0 -1.03125 -0.046875 -2.453125l4.9375 0zm-6.734375 3.1875q-0.046875 0.8125 -0.046875 1.671875l0 2.40625q1.421875 0.90625 3.734375 0.953125q2.328125 0.03125 4.046875 -0.1875q-0.4375 0.5625 -0.515625 1.046875q-1.59375 0 -2.828125 -0.03125q-1.21875 -0.015625 -1.953125 -0.125q-0.71875 -0.109375 -1.3125 -0.328125q-0.578125 -0.203125 -1.015625 -0.46875q-0.421875 -0.265625 -0.8125 0.109375q-0.375 0.359375 -0.8125 1.015625q-0.34375 -0.34375 -0.765625 -0.65625q0.984375 -0.859375 1.453125 -1.203125l0 -3.484375q-0.765625 0 -1.375 0.046875l0 -0.8125q0.65625 0.046875 1.375 0.046875l0.828125 0zm5.875 -0.515625l0 -1.890625l-3.265625 0l0 1.890625l3.265625 0zm-1.578125 1.40625q0.59375 0.484375 2.609375 2.625q-0.34375 0.265625 -0.765625 0.734375q-0.984375 -1.25 -2.453125 -2.703125q0.296875 -0.265625 0.609375 -0.65625zm-4.953125 -4.546875q0.5625 1.109375 0.953125 2.0625q-0.46875 0.171875 -0.8125 0.34375q-0.390625 -1.078125 -0.90625 -2.0625q0.421875 -0.125 0.765625 -0.34375z" fill-rule="nonzero"></path><path fill="#000000" d="m261.86105 467.38455q0.59375 -1.171875 0.71875 -3.53125l-1.453125 0q0.125 2.359375 0.734375 3.53125zm1.578125 -3.53125q-0.078125 2.671875 -1.03125 4.296875q0.6875 0.859375 1.9375 1.5l-0.5625 0.953125q-1.375 -0.90625 -1.921875 -1.71875q-1.0 1.125 -3.0625 1.9375l-0.421875 -0.859375q2.234375 -0.90625 2.96875 -1.859375q-0.734375 -1.40625 -0.828125 -2.828125q-0.25 0.640625 -0.515625 0.984375l-0.71875 -0.5625q1.28125 -1.890625 1.546875 -4.671875l0.890625 0.203125q0.265625 0.171875 -0.125 0.265625q-0.125 0.765625 -0.34375 1.546875l2.921875 0l0 0.8125l-0.734375 0zm-3.984375 -2.0625q-0.265625 0.640625 -0.609375 1.078125l-0.6875 -0.390625q0.34375 -0.5625 0.640625 -1.28125l0.78125 0.375q0.171875 0.171875 -0.125 0.21875zm-2.75 6.0625q0.59375 0.171875 1.0625 0.390625q0.34375 -0.390625 0.5625 -1.171875l-1.25 0q-0.171875 0.390625 -0.375 0.78125zm-0.609375 1.078125l-0.6875 -0.390625q0.4375 -0.640625 0.859375 -1.46875l-1.625 0l0 -0.6875l1.890625 0q0.25 -0.546875 0.375 -0.9375l0.828125 0.21875q0.171875 0.171875 -0.140625 0.203125l-0.25 0.515625l2.453125 0l0 0.6875l-0.65625 0q-0.203125 0.859375 -0.640625 1.46875q0.390625 0.171875 0.8125 0.421875l-0.375 0.6875q-0.484375 -0.296875 -0.859375 -0.46875q-1.125 1.125 -3.015625 1.375l-0.296875 -0.765625q1.671875 -0.171875 2.578125 -0.953125q-0.46875 -0.21875 -0.953125 -0.390625l-0.296875 0.484375zm0.859375 -8.078125l0.6875 0q0.34375 0.03125 0.046875 0.25l0 1.84375l2.1875 0l0 0.6875l-1.796875 0q0.46875 0.5625 1.453125 1.078125l-0.46875 0.734375q-0.734375 -0.4375 -1.375 -1.203125l0 1.03125l-0.734375 0l0 -0.8125q-0.6875 0.859375 -1.890625 1.546875l-0.5625 -0.6875q1.34375 -0.6875 2.203125 -1.6875l-1.984375 0l0 -0.6875l2.234375 0l0 -2.09375zm-1.203125 1.96875q-0.296875 -0.640625 -0.765625 -1.109375l0.6875 -0.4375q0.515625 0.515625 0.765625 1.078125l-0.6875 0.46875zm13.40625 -1.71875l5.625 0l0 2.703125l-1.921875 0l0 1.25l2.40625 0l0 0.6875l-2.40625 0l0 1.296875l1.671875 0l0 3.5625l-0.734375 0l0 -0.46875l-2.578125 0l0 0.59375l-0.734375 0l0 -3.6875l1.515625 0l0 -1.296875l-2.109375 0l0 0.6875q0 2.875 -1.25 4.171875l-0.640625 -0.640625q1.15625 -1.171875 1.15625 -3.703125l0 -5.15625zm4.640625 6.625l-2.578125 0l0 1.71875l2.578125 0l0 -1.71875zm-1.796875 -2.671875l0 -1.25l-2.109375 0l0 1.25l2.109375 0zm-2.109375 -1.9375l4.03125 0l0 -1.328125l-4.03125 0l0 1.328125zm-1.125 3.234375l-1.109375 0.375l0 3.359375q0 0.6875 -0.6875 0.6875l-0.859375 0l-0.125 -0.8125l0.640625 0q0.171875 0 0.171875 -0.171875l0 -2.796875l-0.90625 0.296875q-0.046875 0.296875 -0.21875 0.125l-0.296875 -1.03125l1.421875 -0.296875l0 -2.234375l-1.203125 0l0 -0.8125l1.203125 0l0 -2.234375l0.8125 0q0.34375 0.046875 0.046875 0.25l0 1.984375l1.109375 0l0 0.8125l-1.109375 0l0 2.0625l1.03125 -0.296875l0.078125 0.734375z" fill-rule="nonzero"></path></g></svg>

